<svg xmlns="http://www.w3.org/2000/svg" viewBox="0 0 2472.13 512.95"><g id="Layer_2" data-name="Layer 2"><g id="Layer_1-2" data-name="Layer 1"><path d="M0,27.89H47.89L217,395.28,386.79,27.89h47.89L235.83,452.27h-37Z"/><path d="M490.45,24.86Q490.45,0,515.31,0q12.12,0,18.79,6.37t6.67,18.49q0,12.14-6.67,18.79t-18.79,6.67Q490.44,50.32,490.45,24.86Zm3.64,97.6h43.65V452.27H494.09Z"/><path d="M675.35,122.46l8.49,43.05a100.78,100.78,0,0,1,10.91-13q7.28-7.58,19.71-14.85t30.31-12.43Q762.65,120,786.91,120a105.89,105.89,0,0,1,10.6.6,46.43,46.43,0,0,1,9.4,1.82v43.65q-24.25-3-43.35,0t-39.1,17A91,91,0,0,0,703.24,204a88.87,88.87,0,0,0-11.82,23A124.16,124.16,0,0,0,686,251a186.14,186.14,0,0,0-1.51,23V452.27H640.8V122.46Z"/><path d="M869.36,328.59v-274H913v67.9h92.75v38.8H913V357.08a84.57,84.57,0,0,0,2.42,20.62,75.35,75.35,0,0,0,8.79,17Q930,403.17,941.5,408a61.33,61.33,0,0,0,22.43,4.24q15.15,0,26.37-5.76t16.07-10.61l21.82,32.74a65.54,65.54,0,0,1-16.36,12.73,116.7,116.7,0,0,1-21.53,9.1q-13,4.23-31.82,4.24-35.18,0-58.81-21.82t-28.5-60a62.29,62.29,0,0,1-.6-9.7q-.62-4.84-.91-13.64T869.36,328.59Z"/><path d="M1096.7,121.86h43.65V305q0,7.28.61,18.18a172.87,172.87,0,0,0,2.73,22.43,100.52,100.52,0,0,0,7.27,23,61.17,61.17,0,0,0,14.25,20q12.12,10.9,31.22,17.88a122,122,0,0,0,42.13,7,154,154,0,0,0,39.11-5.16A117.73,117.73,0,0,0,1315,391q14-9.09,21.52-20a100.46,100.46,0,0,0,11.83-22.43,96.1,96.1,0,0,0,5.45-22.13A165.44,165.44,0,0,0,1355,308V122.46h43.65v329.2h-34.56l-9.7-43a178.28,178.28,0,0,1-14.85,12.73,136.2,136.2,0,0,1-25.16,15.15,203.07,203.07,0,0,1-35.77,12.73q-20.62,5.46-47.29,5.46-30.33,0-55.17-7t-42.44-23q-17.58-16.05-27.28-42.13t-9.7-64.87Z"/><path d="M1527.74,122.46l8.49,43.05a100.78,100.78,0,0,1,10.91-13q7.27-7.58,19.71-14.85t30.31-12.43Q1615,120,1639.29,120a105.91,105.91,0,0,1,10.61.6,46.43,46.43,0,0,1,9.4,1.82v43.65q-24.25-3-43.35,0t-39.1,17A90.77,90.77,0,0,0,1555.63,204a88.87,88.87,0,0,0-11.82,23,124.16,124.16,0,0,0-5.46,24,186.14,186.14,0,0,0-1.51,23V452.27h-43.65V122.46Z"/><path d="M1866.64,120q80,0,122.46,46.07l9.09-43.65h34V452.27h-34L1989.1,408a135.94,135.94,0,0,1-51.83,34.86q-30.63,11.82-70.63,11.82-38.81,0-69.11-11.52t-51.23-33q-20.92-21.51-32.13-52.44T1703,287.36Q1703,208,1746,164T1866.64,120ZM1748.42,287.36q0,61.84,30.92,93.67t90.94,31.83q60,0,90.93-31.83t30.92-93.67q0-62.43-30.92-94t-90.93-31.52q-60,0-90.94,31.52T1748.42,287.36Z"/><path d="M2135.21,452.27V3h43.65V452.27Z"/><path d="M2253.54,406.51h89.61v12.43h-37.81v94h-14v-94h-37.81Zm103.85,0h14.51l43,84.17,43-84.17h14.25V513h-14V435.78L2418.26,513h-7l-39.62-77.17V513h-14.25Z"/></g></g></svg>